<svg width="387" height="306" viewBox="0 0 387 306" fill="none" xmlns="http://www.w3.org/2000/svg">
<path d="M85.0029 120C87.7393 134.155 93.19 147.343 100.791 159H54V296C54 301.523 49.5228 306 44 306H34C28.4772 306 24 301.523 24 296V159H12C5.37259 159 2.41604e-07 153.627 0 147V132C0 125.373 5.37258 120 12 120H85.0029ZM375 120C381.627 120 387 125.373 387 132V147C387 153.627 381.627 159 375 159H360V296C360 301.523 355.523 306 350 306H340C334.477 306 330 301.523 330 296V159H285.209C292.81 147.343 298.261 134.155 300.997 120H375ZM193 0C247.676 0 292 44.3238 292 99C292 153.676 247.676 198 193 198C138.324 198 94 153.676 94 99C94 44.3238 138.324 0 193 0ZM193 19C148.817 19 113 54.8172 113 99C113 143.183 148.817 179 193 179C237.183 179 273 143.183 273 99C273 54.8172 237.183 19 193 19ZM192 154C194.209 154 196 155.791 196 158V167C196 169.209 194.209 171 192 171C189.791 171 188 169.209 188 167V158C188 155.791 189.791 154 192 154ZM233.62 49.8594C235.895 47.6485 239.531 47.6999 241.742 49.9746C243.953 52.2493 243.901 55.8859 241.626 58.0967L204.125 94.5459C203.887 94.7769 203.633 94.9814 203.369 95.1631C203.776 96.3682 204 97.6577 204 99C204 105.627 198.627 111 192 111C185.373 111 180 105.627 180 99C180 98.5665 180.023 98.1384 180.067 97.7168L146.963 75.7471C144.32 73.9929 143.599 70.4281 145.354 67.7852C147.108 65.1423 150.673 64.4218 153.315 66.1758L186.615 88.2764C188.235 87.4615 190.063 87 192 87C193.114 87 194.191 87.1545 195.215 87.4385C195.462 87.034 195.764 86.6541 196.119 86.3086L233.62 49.8594ZM134 95C136.209 95 138 96.7909 138 99C138 101.209 136.209 103 134 103H125C122.791 103 121 101.209 121 99C121 96.7909 122.791 95 125 95H134ZM261 95C263.209 95 265 96.7909 265 99C265 101.209 263.209 103 261 103H252C249.791 103 248 101.209 248 99C248 96.7909 249.791 95 252 95H261ZM192 27C194.209 27 196 28.7909 196 31V40C196 42.2091 194.209 44 192 44C189.791 44 188 42.2091 188 40V31C188 28.7909 189.791 27 192 27Z" fill="#D9D9D9"/>
</svg>
